<svg width="160" height="160" viewBox="0 0 160 160" fill="none" xmlns="http://www.w3.org/2000/svg">
  <g filter="url(#filter0_d)">
    <!-- Creator with laptop -->
    <path d="M80 40C91.0457 40 100 48.9543 100 60C100 71.0457 91.0457 80 80 80C68.9543 80 60 71.0457 60 60C60 48.9543 68.9543 40 80 40Z" fill="#9333ea" opacity="0.2"/>

    <!-- Person -->
    <path d="M80 50C85.5228 50 90 54.4772 90 60C90 65.5228 85.5228 70 80 70C74.4772 70 70 65.5228 70 60C70 54.4772 74.4772 50 80 50Z" fill="#9333ea"/>
    <path d="M65 95C65 87.268 71.268 81 79 81H81C88.732 81 95 87.268 95 95V110H65V95Z" fill="#9333ea"/>

    <!-- Laptop -->
    <rect x="60" y="90" width="40" height="25" rx="2" fill="#1e1e2f"/>
    <rect x="65" y="95" width="30" height="15" rx="1" fill="#0f0f1a"/>
    <rect x="55" y="115" width="50" height="3" rx="1.5" fill="#1e1e2f"/>

    <!-- Camera -->
    <rect x="30" y="50" width="15" height="25" rx="2" fill="#9333ea" opacity="0.7"/>
    <circle cx="37.5" cy="55" r="3.5" fill="#0f0f1a"/>
    <rect x="33" y="75" width="9" height="5" rx="1" fill="#1e1e2f"/>
    <rect x="35" y="80" width="5" height="10" rx="1" fill="#1e1e2f"/>

    <!-- Downward trend graph -->
    <circle cx="120" cy="50" r="15" fill="#9333ea" opacity="0.2"/>
    <path d="M110 45L115 50L120 48L130 58" stroke="#ff4d4d" stroke-width="2" stroke-linecap="round"/>
    <path d="M125 53L130 58L130 53" stroke="#ff4d4d" stroke-width="2" stroke-linecap="round" stroke-linejoin="round"/>
  </g>
  <defs>
    <filter id="filter0_d" x="0" y="0" width="160" height="160" filterUnits="userSpaceOnUse" color-interpolation-filters="sRGB">
      <feFlood flood-opacity="0" result="BackgroundImageFix"/>
      <feColorMatrix in="SourceAlpha" type="matrix" values="0 0 0 0 0 0 0 0 0 0 0 0 0 0 0 0 0 0 127 0"/>
      <feOffset/>
      <feGaussianBlur stdDeviation="5"/>
      <feColorMatrix type="matrix" values="0 0 0 0 0.576 0 0 0 0 0.2 0 0 0 0 0.917 0 0 0 0.5 0"/>
      <feBlend mode="normal" in2="BackgroundImageFix" result="effect1_dropShadow"/>
      <feBlend mode="normal" in="SourceGraphic" in2="effect1_dropShadow" result="shape"/>
    </filter>
  </defs>
</svg>
