<svg width="1440" height="800" viewBox="0 0 1440 800" fill="none" xmlns="http://www.w3.org/2000/svg">
  <!-- Background gradient -->
  <rect width="1440" height="800" fill="url(#bg-gradient)"/>

  <!-- Grid lines -->
  <g opacity="0.2">
    <!-- Horizontal lines -->
    <line x1="0" y1="100" x2="1440" y2="100" stroke="#9333ea" stroke-width="1"/>
    <line x1="0" y1="200" x2="1440" y2="200" stroke="#9333ea" stroke-width="1"/>
    <line x1="0" y1="300" x2="1440" y2="300" stroke="#9333ea" stroke-width="1"/>
    <line x1="0" y1="400" x2="1440" y2="400" stroke="#9333ea" stroke-width="1"/>
    <line x1="0" y1="500" x2="1440" y2="500" stroke="#9333ea" stroke-width="1"/>
    <line x1="0" y1="600" x2="1440" y2="600" stroke="#9333ea" stroke-width="1"/>
    <line x1="0" y1="700" x2="1440" y2="700" stroke="#9333ea" stroke-width="1"/>

    <!-- Vertical lines -->
    <line x1="100" y1="0" x2="100" y2="800" stroke="#9333ea" stroke-width="1"/>
    <line x1="300" y1="0" x2="300" y2="800" stroke="#9333ea" stroke-width="1"/>
    <line x1="500" y1="0" x2="500" y2="800" stroke="#9333ea" stroke-width="1"/>
    <line x1="700" y1="0" x2="700" y2="800" stroke="#9333ea" stroke-width="1"/>
    <line x1="900" y1="0" x2="900" y2="800" stroke="#9333ea" stroke-width="1"/>
    <line x1="1100" y1="0" x2="1100" y2="800" stroke="#9333ea" stroke-width="1"/>
    <line x1="1300" y1="0" x2="1300" y2="800" stroke="#9333ea" stroke-width="1"/>
  </g>

  <!-- Glowing particles -->
  <circle cx="200" cy="150" r="3" fill="#9333ea" opacity="0.8">
    <animate attributeName="opacity" values="0.8;0.2;0.8" dur="3s" repeatCount="indefinite"/>
  </circle>
  <circle cx="500" cy="300" r="2" fill="#10b981" opacity="0.6">
    <animate attributeName="opacity" values="0.6;0.1;0.6" dur="4s" repeatCount="indefinite"/>
  </circle>
  <circle cx="800" cy="200" r="4" fill="#9333ea" opacity="0.7">
    <animate attributeName="opacity" values="0.7;0.3;0.7" dur="5s" repeatCount="indefinite"/>
  </circle>
  <circle cx="1100" cy="400" r="3" fill="#10b981" opacity="0.5">
    <animate attributeName="opacity" values="0.5;0.2;0.5" dur="6s" repeatCount="indefinite"/>
  </circle>
  <circle cx="300" cy="600" r="2" fill="#9333ea" opacity="0.6">
    <animate attributeName="opacity" values="0.6;0.1;0.6" dur="4.5s" repeatCount="indefinite"/>
  </circle>
  <circle cx="700" cy="500" r="3" fill="#10b981" opacity="0.7">
    <animate attributeName="opacity" values="0.7;0.2;0.7" dur="3.5s" repeatCount="indefinite"/>
  </circle>
  <circle cx="1000" cy="650" r="4" fill="#9333ea" opacity="0.8">
    <animate attributeName="opacity" values="0.8;0.3;0.8" dur="5.5s" repeatCount="indefinite"/>
  </circle>
  <circle cx="1300" cy="250" r="2" fill="#10b981" opacity="0.5">
    <animate attributeName="opacity" values="0.5;0.1;0.5" dur="4s" repeatCount="indefinite"/>
  </circle>

  <!-- Gradient definitions -->
  <defs>
    <linearGradient id="bg-gradient" x1="0" y1="0" x2="1440" y2="800" gradientUnits="userSpaceOnUse">
      <stop offset="0" stop-color="#0f0f1a"/>
      <stop offset="0.5" stop-color="#1a1a2e"/>
      <stop offset="1" stop-color="#0f0f1a"/>
    </linearGradient>
  </defs>
</svg>
