<svg width="160" height="160" viewBox="0 0 160 160" fill="none" xmlns="http://www.w3.org/2000/svg">
  <g filter="url(#filter0_d)">
    <!-- Viewer with laptop -->
    <path d="M80 40C91.0457 40 100 48.9543 100 60C100 71.0457 91.0457 80 80 80C68.9543 80 60 71.0457 60 60C60 48.9543 68.9543 40 80 40Z" fill="#9333ea" opacity="0.2"/>

    <!-- Person -->
    <path d="M80 50C85.5228 50 90 54.4772 90 60C90 65.5228 85.5228 70 80 70C74.4772 70 70 65.5228 70 60C70 54.4772 74.4772 50 80 50Z" fill="#9333ea"/>
    <path d="M65 95C65 87.268 71.268 81 79 81H81C88.732 81 95 87.268 95 95V110H65V95Z" fill="#9333ea"/>

    <!-- Laptop -->
    <rect x="60" y="90" width="40" height="25" rx="2" fill="#1e1e2f"/>
    <rect x="65" y="95" width="30" height="15" rx="1" fill="#0f0f1a"/>
    <rect x="55" y="115" width="50" height="3" rx="1.5" fill="#1e1e2f"/>

    <!-- Video player on laptop -->
    <rect x="70" y="98" width="20" height="10" rx="1" fill="#333"/>
    <circle cx="80" cy="103" r="3" fill="#9333ea"/>
    <path d="M79 101.5L82 103L79 104.5V101.5Z" fill="white"/>

    <!-- Ad popup 1 -->
    <rect x="30" y="50" width="25" height="20" rx="2" fill="#10b981" opacity="0.7"/>
    <rect x="35" y="55" width="15" height="2" rx="1" fill="white"/>
    <rect x="35" y="60" width="10" height="2" rx="1" fill="white"/>
    <rect x="35" y="65" width="15" height="2" rx="1" fill="white"/>

    <!-- Ad popup 2 -->
    <rect x="110" y="40" width="30" height="25" rx="2" fill="#10b981" opacity="0.7"/>
    <rect x="115" y="45" width="20" height="3" rx="1.5" fill="white"/>
    <rect x="115" y="51" width="15" height="3" rx="1.5" fill="white"/>
    <rect x="115" y="57" width="20" height="3" rx="1.5" fill="white"/>

    <!-- Ad popup 3 -->
    <rect x="105" y="75" width="25" height="20" rx="2" fill="#10b981" opacity="0.7"/>
    <rect x="110" y="80" width="15" height="2" rx="1" fill="white"/>
    <rect x="110" y="85" width="10" height="2" rx="1" fill="white"/>
    <rect x="110" y="90" width="15" height="2" rx="1" fill="white"/>

    <!-- Frustrated expression -->
    <path d="M75 60L77 62" stroke="white" stroke-width="1" stroke-linecap="round"/>
    <path d="M77 60L75 62" stroke="white" stroke-width="1" stroke-linecap="round"/>
    <path d="M83 60L85 62" stroke="white" stroke-width="1" stroke-linecap="round"/>
    <path d="M85 60L83 62" stroke="white" stroke-width="1" stroke-linecap="round"/>
    <path d="M75 67C75 67 77.5 65 80 65C82.5 65 85 67 85 67" stroke="white" stroke-width="1" stroke-linecap="round"/>
  </g>
  <defs>
    <filter id="filter0_d" x="0" y="0" width="160" height="160" filterUnits="userSpaceOnUse" color-interpolation-filters="sRGB">
      <feFlood flood-opacity="0" result="BackgroundImageFix"/>
      <feColorMatrix in="SourceAlpha" type="matrix" values="0 0 0 0 0 0 0 0 0 0 0 0 0 0 0 0 0 0 127 0"/>
      <feOffset/>
      <feGaussianBlur stdDeviation="5"/>
      <feColorMatrix type="matrix" values="0 0 0 0 0.576 0 0 0 0 0.2 0 0 0 0 0.917 0 0 0 0.5 0"/>
      <feBlend mode="normal" in2="BackgroundImageFix" result="effect1_dropShadow"/>
      <feBlend mode="normal" in="SourceGraphic" in2="effect1_dropShadow" result="shape"/>
    </filter>
  </defs>
</svg>
